<?xml version="1.0" standalone="no"?>
<!DOCTYPE svg PUBLIC "-//W3C//DTD SVG 20010904//EN"
 "http://www.w3.org/TR/2001/REC-SVG-20010904/DTD/svg10.dtd">
<svg version="1.0" xmlns="http://www.w3.org/2000/svg"
 width="497.000000pt" height="364.000000pt" viewBox="0 0 497.000000 364.000000"
 preserveAspectRatio="xMidYMid meet">

<g transform="translate(0.000000,364.000000) scale(0.100000,-0.100000)"
fill="#000000" stroke="none">
<path d="M2448 2545 c-10 -53 3 -985 14 -985 9 0 9 312 -1 745 -4 170 -9 264
-13 240z"/>
<path d="M3027 2253 c-8 -15 -61 -154 -117 -308 -56 -154 -115 -313 -131 -353
-31 -77 -36 -106 -18 -100 6 2 31 60 54 128 23 69 86 244 139 389 53 145 95
265 92 268 -2 3 -11 -8 -19 -24z"/>
<path d="M1830 2214 c0 -6 20 -57 45 -112 24 -56 86 -202 136 -324 116 -283
120 -291 131 -280 7 7 -11 58 -50 144 -73 160 -81 180 -139 333 -47 125 -80
196 -107 230 -8 11 -16 15 -16 9z"/>
<path d="M2790 2079 c0 -24 23 -21 28 4 2 10 -3 17 -12 17 -10 0 -16 -9 -16
-21z"/>
<path d="M3369 1739 c-327 -330 -387 -395 -374 -407 4 -4 68 58 143 138 75 80
231 241 346 357 115 117 207 216 203 219 -4 4 -147 -134 -318 -307z"/>
<path d="M2607 2020 c-3 -14 -11 -74 -17 -135 -6 -60 -17 -152 -25 -202 -17
-108 -18 -123 -6 -123 15 0 19 23 41 235 20 197 23 286 7 225z"/>
<path d="M2065 2010 c-7 -12 2 -30 16 -30 5 0 9 9 9 20 0 21 -15 27 -25 10z"/>
<path d="M2276 1918 c8 -46 23 -143 33 -217 11 -73 24 -138 30 -144 8 -8 11
-3 11 19 0 27 -35 241 -61 372 -17 85 -27 59 -13 -30z"/>
<path d="M2760 1985 c0 -8 7 -15 15 -15 8 0 15 7 15 15 0 8 -7 15 -15 15 -8 0
-15 -7 -15 -15z"/>
<path d="M1430 1784 c252 -253 469 -456 481 -449 15 10 -630 635 -655 635 -6
0 72 -84 174 -186z"/>
<path d="M2087 1933 c-12 -11 -8 -23 8 -23 8 0 15 7 15 15 0 16 -12 20 -23 8z"/>
<path d="M2742 1900 c-15 -44 -82 -330 -82 -347 0 -41 24 -20 33 28 4 24 19
93 33 152 14 60 23 123 21 140 -2 18 -5 30 -5 27z"/>
<path d="M3174 1773 c-48 -65 -127 -171 -176 -237 -78 -105 -94 -136 -69 -136
4 0 31 37 61 83 30 45 95 136 145 203 103 136 140 192 132 201 -3 3 -45 -48
-93 -114z"/>
<path d="M3032 1869 c2 -6 8 -10 13 -10 5 0 11 4 13 10 2 6 -4 11 -13 11 -9 0
-15 -5 -13 -11z"/>
<path d="M2157 1698 c25 -84 47 -156 50 -160 8 -14 23 -8 23 10 0 24 -101 302
-110 302 -5 0 12 -69 37 -152z"/>
<path d="M1805 1821 c-7 -12 12 -24 25 -16 11 7 4 25 -10 25 -5 0 -11 -4 -15
-9z"/>
<path d="M2987 1768 c-73 -127 -156 -297 -148 -302 13 -8 25 10 64 96 19 42
53 107 74 145 46 78 56 103 44 103 -5 0 -20 -19 -34 -42z"/>
<path d="M1628 1785 c6 -11 48 -63 93 -115 45 -52 116 -137 157 -187 42 -51
79 -93 84 -93 20 0 3 28 -65 104 -40 44 -96 110 -124 146 -56 71 -162 177
-145 145z"/>
<path d="M1863 1746 c11 -27 143 -249 165 -276 11 -14 23 -22 27 -18 8 7 -169
293 -188 305 -6 4 -8 0 -4 -11z"/>
<path d="M3349 1514 c-250 -200 -289 -233 -289 -245 0 -19 21 -7 80 46 34 30
125 106 203 169 199 162 213 174 206 180 -3 3 -93 -65 -200 -150z"/>
<path d="M1370 1596 c0 -2 42 -35 93 -72 50 -37 152 -112 225 -167 74 -54 141
-97 150 -95 11 2 -6 19 -48 49 -36 25 -128 92 -205 148 -125 92 -215 149 -215
137z"/>
<path d="M3536 1413 c-11 -11 -6 -23 9 -23 8 0 15 4 15 9 0 13 -16 22 -24 14z"/>
<path d="M1357 1403 c-4 -3 -7 -12 -7 -20 0 -15 26 -18 34 -4 7 11 -18 33 -27
24z"/>
<path d="M3635 1279 c-335 -126 -465 -180 -465 -191 0 -17 40 -6 170 48 74 30
232 94 350 141 194 78 272 114 245 113 -6 -1 -140 -50 -300 -111z"/>
<path d="M994 1363 c16 -8 119 -48 228 -89 110 -40 263 -100 341 -133 78 -33
150 -61 159 -63 33 -6 20 17 -18 31 -21 8 -167 65 -324 126 -255 101 -381 146
-407 145 -4 -1 5 -8 21 -17z"/>
<path d="M3455 1370 c-7 -12 2 -30 16 -30 5 0 9 9 9 20 0 21 -15 27 -25 10z"/>
<path d="M1436 1341 c15 -15 330 -181 342 -181 37 0 -7 29 -158 105 -155 78
-210 100 -184 76z"/>
<path d="M3295 1274 c-147 -75 -178 -95 -166 -107 7 -7 45 10 128 57 176 101
199 131 38 50z"/>
<path d="M1200 1115 c0 -8 7 -15 15 -15 8 0 15 7 15 15 0 8 -7 15 -15 15 -8 0
-15 -7 -15 -15z"/>
<path d="M1292 1093 c5 -25 28 -28 28 -4 0 12 -6 21 -16 21 -9 0 -14 -7 -12
-17z"/>
<path d="M3680 1095 c0 -10 7 -15 18 -13 21 4 19 22 -2 26 -10 2 -16 -3 -16
-13z"/>
<path d="M3585 1080 c-3 -6 1 -13 10 -16 19 -8 30 0 20 15 -8 14 -22 14 -30 1z"/>
<path d="M1390 1070 c0 -5 19 -14 43 -20 23 -6 81 -22 128 -35 98 -28 147 -34
149 -20 2 11 0 12 -183 55 -147 34 -137 33 -137 20z"/>
<path d="M3335 1028 c-66 -11 -127 -26 -135 -34 -12 -12 -11 -14 14 -14 16 0
80 12 144 26 206 46 194 57 -23 22z"/>
<path d="M1112 954 c4 -3 78 -14 165 -24 87 -10 215 -26 285 -36 116 -17 153
-16 134 3 -4 4 -111 20 -239 35 -222 26 -357 35 -345 22z"/>
<path d="M3655 945 c-49 -8 -161 -21 -247 -30 -87 -8 -165 -18 -173 -21 -26
-10 -16 -26 13 -20 15 3 99 15 187 26 231 29 308 41 325 51 20 11 11 11 -105
-6z"/>
<path d="M850 811 c-34 -7 81 -12 634 -27 183 -5 218 -4 214 7 -4 11 -40 14
-174 14 -93 0 -275 3 -404 7 -129 4 -251 3 -270 -1z"/>
<path d="M3435 810 c-249 -8 -235 -7 -235 -21 0 -8 38 -9 128 -4 123 6 372 11
695 14 97 1 157 5 157 11 0 11 -393 11 -745 0z"/>
<path d="M1720 790 c0 -5 5 -10 10 -10 6 0 10 5 10 10 0 6 -4 10 -10 10 -5 0
-10 -4 -10 -10z"/>
<path d="M1760 790 c0 -5 5 -10 10 -10 6 0 10 5 10 10 0 6 -4 10 -10 10 -5 0
-10 -4 -10 -10z"/>
<path d="M1800 790 c0 -5 5 -10 10 -10 6 0 10 5 10 10 0 6 -4 10 -10 10 -5 0
-10 -4 -10 -10z"/>
<path d="M1840 790 c0 -5 5 -10 10 -10 6 0 10 5 10 10 0 6 -4 10 -10 10 -5 0
-10 -4 -10 -10z"/>
<path d="M1880 790 c0 -5 5 -10 10 -10 6 0 10 5 10 10 0 6 -4 10 -10 10 -5 0
-10 -4 -10 -10z"/>
<path d="M1920 790 c0 -5 5 -10 10 -10 6 0 10 5 10 10 0 6 -4 10 -10 10 -5 0
-10 -4 -10 -10z"/>
<path d="M1960 790 c0 -5 5 -10 10 -10 6 0 10 5 10 10 0 6 -4 10 -10 10 -5 0
-10 -4 -10 -10z"/>
<path d="M2000 790 c0 -5 5 -10 10 -10 6 0 10 5 10 10 0 6 -4 10 -10 10 -5 0
-10 -4 -10 -10z"/>
<path d="M2040 790 c0 -5 5 -10 10 -10 6 0 10 5 10 10 0 6 -4 10 -10 10 -5 0
-10 -4 -10 -10z"/>
<path d="M2080 790 c0 -5 5 -10 10 -10 6 0 10 5 10 10 0 6 -4 10 -10 10 -5 0
-10 -4 -10 -10z"/>
<path d="M2120 790 c0 -5 5 -10 10 -10 6 0 10 5 10 10 0 6 -4 10 -10 10 -5 0
-10 -4 -10 -10z"/>
<path d="M2160 790 c0 -5 5 -10 10 -10 6 0 10 5 10 10 0 6 -4 10 -10 10 -5 0
-10 -4 -10 -10z"/>
<path d="M2200 790 c0 -5 5 -10 10 -10 6 0 10 5 10 10 0 6 -4 10 -10 10 -5 0
-10 -4 -10 -10z"/>
<path d="M2240 790 c0 -5 5 -10 10 -10 6 0 10 5 10 10 0 6 -4 10 -10 10 -5 0
-10 -4 -10 -10z"/>
<path d="M2280 790 c0 -5 5 -10 10 -10 6 0 10 5 10 10 0 6 -4 10 -10 10 -5 0
-10 -4 -10 -10z"/>
<path d="M2320 790 c0 -5 5 -10 10 -10 6 0 10 5 10 10 0 6 -4 10 -10 10 -5 0
-10 -4 -10 -10z"/>
<path d="M2360 790 c0 -5 5 -10 10 -10 6 0 10 5 10 10 0 6 -4 10 -10 10 -5 0
-10 -4 -10 -10z"/>
<path d="M2400 790 c0 -5 5 -10 10 -10 6 0 10 5 10 10 0 6 -4 10 -10 10 -5 0
-10 -4 -10 -10z"/>
<path d="M2440 790 c0 -5 5 -10 10 -10 6 0 10 5 10 10 0 6 -4 10 -10 10 -5 0
-10 -4 -10 -10z"/>
<path d="M2480 790 c0 -5 5 -10 10 -10 6 0 10 5 10 10 0 6 -4 10 -10 10 -5 0
-10 -4 -10 -10z"/>
<path d="M2520 790 c0 -5 5 -10 10 -10 6 0 10 5 10 10 0 6 -4 10 -10 10 -5 0
-10 -4 -10 -10z"/>
<path d="M2560 790 c0 -5 5 -10 10 -10 6 0 10 5 10 10 0 6 -4 10 -10 10 -5 0
-10 -4 -10 -10z"/>
<path d="M2600 790 c0 -5 5 -10 10 -10 6 0 10 5 10 10 0 6 -4 10 -10 10 -5 0
-10 -4 -10 -10z"/>
<path d="M2640 790 c0 -5 5 -10 10 -10 6 0 10 5 10 10 0 6 -4 10 -10 10 -5 0
-10 -4 -10 -10z"/>
<path d="M2680 790 c0 -5 5 -10 10 -10 6 0 10 5 10 10 0 6 -4 10 -10 10 -5 0
-10 -4 -10 -10z"/>
<path d="M2720 790 c0 -5 5 -10 10 -10 6 0 10 5 10 10 0 6 -4 10 -10 10 -5 0
-10 -4 -10 -10z"/>
<path d="M2760 790 c0 -5 5 -10 10 -10 6 0 10 5 10 10 0 6 -4 10 -10 10 -5 0
-10 -4 -10 -10z"/>
<path d="M2800 790 c0 -5 5 -10 10 -10 6 0 10 5 10 10 0 6 -4 10 -10 10 -5 0
-10 -4 -10 -10z"/>
<path d="M2840 790 c0 -5 5 -10 10 -10 6 0 10 5 10 10 0 6 -4 10 -10 10 -5 0
-10 -4 -10 -10z"/>
<path d="M2880 790 c0 -5 5 -10 10 -10 6 0 10 5 10 10 0 6 -4 10 -10 10 -5 0
-10 -4 -10 -10z"/>
<path d="M2920 790 c0 -5 5 -10 10 -10 6 0 10 5 10 10 0 6 -4 10 -10 10 -5 0
-10 -4 -10 -10z"/>
<path d="M2960 790 c0 -5 5 -10 10 -10 6 0 10 5 10 10 0 6 -4 10 -10 10 -5 0
-10 -4 -10 -10z"/>
<path d="M3000 790 c0 -5 5 -10 10 -10 6 0 10 5 10 10 0 6 -4 10 -10 10 -5 0
-10 -4 -10 -10z"/>
<path d="M3040 790 c0 -5 5 -10 10 -10 6 0 10 5 10 10 0 6 -4 10 -10 10 -5 0
-10 -4 -10 -10z"/>
<path d="M3080 790 c0 -5 5 -10 10 -10 6 0 10 5 10 10 0 6 -4 10 -10 10 -5 0
-10 -4 -10 -10z"/>
<path d="M3120 790 c0 -5 5 -10 10 -10 6 0 10 5 10 10 0 6 -4 10 -10 10 -5 0
-10 -4 -10 -10z"/>
<path d="M3160 790 c0 -5 5 -10 10 -10 6 0 10 5 10 10 0 6 -4 10 -10 10 -5 0
-10 -4 -10 -10z"/>
</g>
</svg>
